<?xml version="1.0" encoding="UTF-8"?>
<svg id="Layer_1" xmlns="http://www.w3.org/2000/svg" version="1.1" viewBox="0 0 152.88 94.08">
  <!-- Generator: Adobe Illustrator 29.5.0, SVG Export Plug-In . SVG Version: 2.1.0 Build 137)  -->
  <defs>
    <style>
      .st0 {
        fill: #fff;
      }

      .st1 {
        fill: #6a5651;
      }
    </style>
  </defs>
  <path class="st0" d="M152.88,0v94.08H0V0h152.88ZM78.12,7.92c-17.46-1.08-30.26,16.31-23.45,32.72,7.17,17.27,31.14,19.51,41.33,3.79,9.33-14.38.71-33.45-15.96-36.27-.44,1.02,2.14,1.98,2.15,2.28-3.82,2.49-5.27,6.31-5.52,10.77,1.68.6,3.64,1.92,5.44,2.05,2.52.18,6.12-2.6,6.56,1.93-2.16.22-9.09,1.26-7.49,4.74.9,1.97,5.23-.61,6.78,1.2,1.09,1.27.68,3.13.36,4.63-1.28,6.1-6.22,9.17-11.75,11.01-6.81-2.55-11.24-5.25-12.55-12.85-.08-.47-.18-2.85-.29-2.96-.04-.04-.67,0-1.08-.24-1.99-1.15-.78-4.65.52-5.99,2.62-2.7,10.37-3.55,11.78-6.68s-.3-6.15,2.34-9.41c.31-.38.77-.35.83-.73h0ZM55.11,63.12v-3.72c0-.89-2.88-1.46-2.88,0v13.56h5.87c.97,0,2.9-1.48,3.44-2.32,2.75-4.29-1.76-9.75-6.43-7.52ZM74.04,70.56v-3.72c0-1.2-1.83-3.28-2.95-3.76-4.88-2.12-9.34,3.55-6.28,7.73,1.57,2.15,3.88,2.31,6.36,2.15.82,3.73-4.07,1.61-3.79,4.15.12,1.07,1.65.97,2.48.9,2.51-.24,4.39-2.55,4.19-5.04,3.69-.3,8.01.41,11.62,0,.94-.11,2.66-1.18,2.84-1.16.46.04,1.49,1.03,2.67,1.16,2.98.32,8.26.4,9.12-3.34.19-.81.24-5.65-.02-6.25-.31-.71-1.12-.85-1.8-.62-2.17.72.25,6.39-1.81,7.55-.95.54-5.71.55-6.4-.52-1.11-1.72.03-8.25-.45-10.57-.83-1.33-2.58-.83-2.82.69-.41,2.64.31,6.16,0,8.87-.13,1.11-.7,1.67-1.8,1.8-3.45.4-7.62-.31-11.15,0v-.02ZM92.67,75.16c-1.33.27-1.41,2.32-.19,2.74,2.6.87,2.87-3.28.19-2.74Z"/>
  <path class="st1" d="M78.12,7.92c-.06.38-.52.34-.83.73-2.65,3.27-1,6.43-2.34,9.41-1.41,3.13-9.15,3.99-11.78,6.68-1.3,1.34-2.51,4.84-.52,5.99.41.23,1.04.2,1.08.24.1.11.2,2.48.29,2.96,1.31,7.61,5.74,10.3,12.55,12.85,5.53-1.84,10.47-4.91,11.75-11.01.31-1.5.72-3.35-.36-4.63-1.54-1.81-5.87.77-6.78-1.2-1.6-3.49,5.33-4.53,7.49-4.74-.43-4.54-4.03-1.76-6.56-1.93-1.8-.13-3.76-1.45-5.44-2.05.25-4.46,1.7-8.29,5.52-10.77,0-.3-2.59-1.26-2.15-2.28,16.67,2.82,25.29,21.89,15.96,36.27-10.19,15.72-34.16,13.49-41.33-3.79-6.81-16.42,5.98-33.8,23.45-32.72h0ZM83.34,14.7c-.98-.94-2.79.67-2.24,1.87,1.16,1.1,3.12-1.04,2.24-1.87Z"/>
  <path class="st1" d="M74.04,70.56c3.53-.3,7.7.4,11.15,0,1.1-.13,1.67-.69,1.8-1.8.31-2.71-.4-6.23,0-8.87.23-1.51,1.99-2.02,2.82-.69.48,2.32-.66,8.85.45,10.57.69,1.07,5.45,1.05,6.4.52,2.06-1.16-.36-6.83,1.81-7.55.69-.23,1.49-.09,1.8.62.27.6.21,5.44.02,6.25-.87,3.74-6.14,3.67-9.12,3.34-1.19-.13-2.22-1.12-2.67-1.16-.17-.02-1.89,1.06-2.84,1.16-3.61.41-7.93-.3-11.62,0,.2,2.49-1.69,4.8-4.19,5.04-.82.08-2.36.17-2.48-.9-.28-2.53,4.61-.42,3.79-4.15-2.48.15-4.79,0-6.36-2.15-3.05-4.18,1.4-9.85,6.28-7.73,1.12.49,2.95,2.57,2.95,3.76v3.74ZM71.17,70.56c-.07-1.5.3-3.24-.61-4.55-1.29-1.86-3.5-.71-3.71,1.31-.31,3,1.79,3.5,4.32,3.25h0Z"/>
  <path class="st1" d="M55.11,63.12c4.67-2.23,9.18,3.23,6.43,7.52-.54.84-2.47,2.32-3.44,2.32h-5.87v-13.56c0-1.46,2.88-.89,2.88,0,0,0,0,3.72,0,3.72ZM55.11,70.56c2.83.78,5.63-1.72,3.84-4.44-1.32-2.01-3.84-.5-3.84.96v3.48Z"/>
  <path class="st1" d="M92.67,75.16c2.68-.55,2.41,3.61-.19,2.74-1.22-.41-1.14-2.46.19-2.74Z"/>
  <path class="st0" d="M83.34,14.7c.88.84-1.09,2.98-2.24,1.87-.55-1.21,1.26-2.81,2.24-1.87Z"/>
  <path class="st0" d="M71.17,70.56c-2.53.26-4.63-.25-4.32-3.25.21-2.02,2.42-3.16,3.71-1.31.91,1.31.54,3.05.61,4.55h0Z"/>
  <path class="st0" d="M55.11,70.56v-3.48c0-1.46,2.51-2.97,3.84-.96,1.79,2.72-1.01,5.23-3.84,4.44Z"/>
</svg>